<svg xmlns="http://www.w3.org/2000/svg" version="1.1" xmlns:xlink="http://www.w3.org/1999/xlink" xmlns:svgjs="http://svgjs.com/svgjs" width="1440" height="560" preserveAspectRatio="none" viewBox="0 0 1440 560"><g mask="url(&quot;#SvgjsMask1014&quot;)" fill="none"><rect width="1440" height="560" x="0" y="0" fill="rgba(234, 117, 117, 0.48627450980392156)"></rect><path d="M934.06-47.78C852.03-46.77 871.29 40.77 619.73 46.44 368.17 52.11 160.84 299.11-8.94 304.04" stroke="rgba(61, 26, 25, 1)" stroke-width="2"></path><path d="M1229.95-27.74C1063.52-25 936.97 174.17 598.27 182.67 259.58 191.17 139.23 456.49-33.4 462.67" stroke="rgba(61, 26, 25, 1)" stroke-width="2"></path><path d="M1139.01-19.87C1017.59-18.95 903.89 99.11 668.13 99.13 432.37 99.15 432.68 29.13 197.24 29.13-38.2 29.13-154.63 98.94-273.64 99.13" stroke="rgba(61, 26, 25, 1)" stroke-width="2"></path><path d="M880.41-33.25C701.14 4.66 632.01 465.03 348.69 471.23 65.37 477.43-47.18 359.84-183.03 359.23" stroke="rgba(61, 26, 25, 1)" stroke-width="2"></path><path d="M800.53-89.19C644.27-35.12 602.13 423.46 385.84 426.05 169.54 428.64 94.16 168.66-28.86 157.25" stroke="rgba(61, 26, 25, 1)" stroke-width="2"></path></g><defs><mask id="SvgjsMask1014"><rect width="1440" height="560" fill="#ffffff"></rect></mask></defs></svg>